<svg xmlns="http://www.w3.org/2000/svg" viewBox="0 0 120.7 95.1364">
  <path class="a" d="M60.1234,25.0927c9.5-.3,22.5688-.2836,26.1688,1.4164,6,2.8,12.6,8.3,12.2,17.3s-3.7,12.9-3.7,12.9l7,14.9-7.6,23.1-7.8-.1,7.7-19.9s-17.1-7.2-20.7-17.3c0,0-7.9,7-13.6,8l.043,0-.043,8s.5,2.3,6.5,2.3l.1,6.9a7.3363,7.3363,0,0,1-6.6-.8h.1c-2.5-1.5-5.3-4.8-7.2-11.6,0,0-1-9-.5-9.8.3-.5,4.6-3.5,7.7-5.6l2.9-1.8a29.51,29.51,0,0,0-2.9-.7c-2.5-.5-5.7-1.2-6-1.2-.4.1-9.6,6-9.6,6l2,29.6-2,7.9-9.6.2,5.7-9.6s-8.9-24-8.9-28.6l-12.6-.1-.2,8.1a5.2977,5.2977,0,0,0,4.1,1.9l.2,7.1a15.2987,15.2987,0,0,1-10.3-5.3s-1.2-13.3.4-15.4c1.6-2,15.1-11.9,15.1-11.9s-7.4-15.7-8.3-16.1c-.9-.3-3.9,6.3-4.5,9.5-.6,3.1-7.9,5.3-8.7-2.7l.4-9.9-2.4-7-.1-7.9-4.9-5s16.6-5.7,28.6,1.1c12,6.9,20.9,22.5,20.9,22.5S53.9234,25.1927,60.1234,25.0927Z" transform="translate(0.3078 0.3273)"/>
  <path class="a" d="M88.9922,24.0091s11.7-6.1,21.9,5.9c0,0,4.7,4.5,3.3,17.9,0,0-1.4,6.4,6.2,14,0,0-10.5-1-13.7-5.3-3-4.1-4.5-7.6-4.4-16.9.1,0-.2-9.8-13.3-15.6" transform="translate(0.3078 0.3273)"/>
</svg>
