<svg xmlns="http://www.w3.org/2000/svg" viewBox="0 0 445.60298 478.32599">
  <title>angular-logo</title>
  <g>
    <path d="M0,79.461l34.277,295.1L222.8,478.326V0Z" style="fill: #020203"/>
    <path d="M222.803,478.014,411.329,374.559,445.603,79.15,222.803,0Z" style="fill: #fece03"/>
    <g>
      <path d="M222.491,314.418s1.558,7.167,20.255,7.167l.312,21.5s-9.66,4.363-20.566-2.493" style="fill: #e9bd04"/>
      <path d="M222.491,314.417l.311-24.617c-.312,0-.935.312-1.246.312Z" style="fill: #be9a08"/>
      <path d="M331.556,262.378s10.283-12.153,11.53-40.2-19.32-45.184-38.017-53.909c-11.219-5.296-52.978-5.296-82.578-4.361v84.759c4.986.935,9.348,2.181,9.348,2.181s-4.363,2.493-9.348,5.921v32.719c17.762-3.116,42.379-24.929,42.379-24.929,11.218,31.473,64.5,53.909,64.5,53.909l-23.994,62.011,24.306.312,23.683-71.983Z" style="fill: #e9bd04"/>
      <path d="M222.803,248.667c-7.79-1.558-17.762-3.739-18.7-3.739-1.246.312-29.915,18.7-29.915,18.7l6.232,92.237-6.229,24.617-29.915.623,17.762-29.915s-27.734-74.787-27.734-89.121l-39.263-.312-.623,25.241a16.508,16.508,0,0,0,12.776,5.921l.623,22.124s-19.632-.935-32.1-16.515c0,0-3.739-41.445,1.246-47.988,4.986-6.232,47.054-37.082,47.054-37.082s-23.055-48.926-25.859-50.176c-2.8-.935-12.153,19.632-14.023,29.6-1.87,9.66-24.617,16.515-27.11-8.414l1.246-30.85-7.478-21.806-.312-24.617L35.212,91.614s51.728-17.762,89.121,3.428c37.394,21.5,65.127,70.113,65.127,70.113s13.4-.935,32.719-1.246" style="fill: #343332"/>
      <path d="M222.802,340.593c-7.79-4.674-16.515-14.957-22.436-36.147,0,0-3.116-28.045-1.558-30.538.935-1.558,14.334-10.906,23.994-17.45" style="fill: #343332"/>
      <path d="M313.482,160.481s36.459-19.008,68.243,18.385c0,0,14.646,14.023,10.283,55.779,0,0-4.363,19.943,19.32,43.626,0,0-32.719-3.116-42.691-16.515-9.348-12.776-14.023-23.683-13.711-52.663.312,0-.623-30.538-41.445-48.612" style="fill: #e9bd04"/>
      <path d="M223.115,256.769h-40.2l39.886-96.912,39.886,96.912Zm0-196.939-.312-.935-.312.935L83.824,370.195H135.24c.312,0,28.357-70.425,28.357-70.425H282.01s28.045,70.425,28.357,70.425h51.416Z" style="fill: #fefefe"/>
    </g>
  </g>
</svg>
