<?xml version="1.0" standalone="no"?>
<!DOCTYPE svg PUBLIC "-//W3C//DTD SVG 20010904//EN"
 "http://www.w3.org/TR/2001/REC-SVG-20010904/DTD/svg10.dtd">
<svg version="1.0" xmlns="http://www.w3.org/2000/svg"
 width="956.000000pt" height="956.000000pt" viewBox="0 0 956.000000 956.000000"
 preserveAspectRatio="xMidYMid meet">
<metadata>
Created by potrace 1.11, written by Peter Selinger 2001-2013
</metadata>
<g transform="translate(0.000000,956.000000) scale(0.100000,-0.100000)"
fill="#000000" stroke="none">
<path d="M4695 9533 c-126 -46 -305 -110 -610 -218 -480 -171 -880 -313 -1015
-362 -69 -25 -199 -71 -290 -103 -158 -56 -594 -211 -860 -307 -69 -24 -231
-82 -360 -128 -129 -46 -388 -138 -575 -205 -187 -67 -411 -146 -498 -177
-136 -48 -157 -58 -157 -77 0 -23 4 -58 50 -446 16 -140 48 -412 70 -605 60
-524 97 -842 130 -1120 16 -137 47 -407 70 -600 42 -368 87 -755 121 -1040 11
-93 33 -285 49 -425 16 -140 45 -392 65 -560 20 -168 49 -420 65 -560 16 -140
37 -317 46 -392 l17 -137 241 -132 c133 -73 320 -176 416 -229 96 -53 362
-200 590 -325 388 -213 531 -292 1145 -630 902 -497 1353 -745 1368 -751 16
-6 17 82 19 1367 l3 1374 2 -1357 c2 -747 6 -1358 11 -1358 4 0 32 14 62 31
30 17 197 108 370 203 677 372 839 461 1240 681 430 236 779 427 1395 765 597
327 660 362 667 369 4 3 12 51 18 106 6 55 24 213 40 350 34 290 85 721 135
1155 19 168 48 418 65 555 16 138 32 277 35 310 3 33 19 170 35 305 16 135 45
385 65 555 20 171 49 425 66 565 16 140 31 275 34 300 3 25 18 160 35 300 16
140 45 390 65 555 19 165 49 418 66 563 20 170 28 267 22 273 -8 8 -534 199
-698 254 -22 7 -96 33 -165 58 -69 25 -242 86 -385 137 -143 51 -314 111 -380
135 -66 23 -275 98 -465 165 -190 67 -399 142 -465 165 -66 24 -237 84 -380
135 -143 51 -314 111 -380 135 -66 24 -275 98 -465 165 -437 155 -578 205
-612 219 l-28 11 0 -594 0 -594 31 -69 c36 -80 286 -638 404 -903 117 -263
326 -730 402 -900 36 -80 80 -181 98 -225 18 -44 64 -150 102 -235 69 -153
265 -589 553 -1235 81 -181 205 -458 275 -615 159 -356 263 -589 398 -890 57
-129 126 -280 152 -335 41 -87 132 -289 306 -679 27 -60 46 -113 42 -119 -4
-6 -178 -7 -517 -3 -456 7 -512 9 -521 24 -16 26 -56 125 -317 774 l-243 608
-582 0 -582 0 -4 -153 -3 -152 -2 158 -2 157 -597 -2 -597 -3 -211 -525 c-116
-289 -242 -603 -280 -697 l-70 -173 -507 0 c-280 0 -508 2 -508 5 0 7 123 284
515 1160 207 463 279 624 462 1035 206 461 270 605 398 890 48 107 151 339
230 515 138 310 220 492 407 910 50 110 164 367 255 570 196 438 255 571 397
888 l106 237 0 590 c0 466 -3 590 -12 589 -7 0 -44 -12 -83 -26z"/>
<path d="M4779 6355 c-6 -9 -55 -127 -144 -345 -49 -120 -128 -312 -382 -928
-146 -354 -262 -646 -258 -650 11 -11 414 -13 1021 -5 l561 8 -169 410 c-93
226 -182 442 -198 480 -16 39 -47 115 -70 170 -23 55 -54 132 -70 170 -16 39
-77 187 -136 330 -109 266 -132 317 -135 300 -1 -5 -5 8 -8 30 -3 22 -9 36
-12 30z m18 -1872 c-2 -21 -4 -6 -4 32 0 39 2 55 4 38 2 -18 2 -50 0 -70z"/>
</g>
</svg>
